<svg width="40" height="40" viewBox="0 0 40 40" fill="none" xmlns="http://www.w3.org/2000/svg">
<path d="M7.49998 20C9.80117 20 11.6666 18.1345 11.6666 15.8334C11.6666 13.5322 9.80117 11.6667 7.49998 11.6667C5.19879 11.6667 3.33331 13.5322 3.33331 15.8334C3.33331 18.1345 5.19879 20 7.49998 20Z" fill="white"/>
<path d="M15 13.3333C17.3012 13.3333 19.1666 11.4679 19.1666 9.16667C19.1666 6.86548 17.3012 5 15 5C12.6988 5 10.8333 6.86548 10.8333 9.16667C10.8333 11.4679 12.6988 13.3333 15 13.3333Z" fill="white"/>
<path d="M25 13.3333C27.3012 13.3333 29.1666 11.4679 29.1666 9.16667C29.1666 6.86548 27.3012 5 25 5C22.6988 5 20.8333 6.86548 20.8333 9.16667C20.8333 11.4679 22.6988 13.3333 25 13.3333Z" fill="white"/>
<path d="M32.5 20C34.8012 20 36.6666 18.1345 36.6666 15.8334C36.6666 13.5322 34.8012 11.6667 32.5 11.6667C30.1988 11.6667 28.3333 13.5322 28.3333 15.8334C28.3333 18.1345 30.1988 20 32.5 20Z" fill="white"/>
<path d="M28.9 24.7667C27.45 23.0667 26.2333 21.6167 24.7666 19.9167C24 19.0167 23.0166 18.1167 21.85 17.7167C21.6666 17.65 21.4833 17.6 21.3 17.5667C20.8833 17.5 20.4333 17.5 20 17.5C19.5666 17.5 19.1166 17.5 18.6833 17.5833C18.5 17.6167 18.3166 17.6667 18.1333 17.7333C16.9666 18.1333 16 19.0333 15.2166 19.9333C13.7666 21.6333 12.55 23.0833 11.0833 24.7833C8.89997 26.9667 6.21664 29.3833 6.71664 32.7667C7.19997 34.4667 8.41664 36.15 10.6 36.6333C11.8166 36.8833 15.7 35.9 19.8333 35.9H20.1333C24.2666 35.9 28.15 36.8667 29.3666 36.6333C31.55 36.15 32.7666 34.45 33.25 32.7667C33.7666 29.3667 31.0833 26.95 28.9 24.7667Z" fill="white"/>
</svg>
