<svg width="42" height="42" viewBox="0 0 42 42" fill="none" xmlns="http://www.w3.org/2000/svg">
<path d="M27.75 17.5H26V3.5C26 1.575 24.425 0 22.5 0H19C17.075 0 15.5 1.575 15.5 3.5V17.5H13.75C8.92 17.5 5 21.42 5 26.25V38.5H36.5V26.25C36.5 21.42 32.58 17.5 27.75 17.5ZM19 3.5H22.5V17.5H19V3.5ZM33 35H29.5V29.75C29.5 28.7875 28.7125 28 27.75 28C26.7875 28 26 28.7875 26 29.75V35H22.5V29.75C22.5 28.7875 21.7125 28 20.75 28C19.7875 28 19 28.7875 19 29.75V35H15.5V29.75C15.5 28.7875 14.7125 28 13.75 28C12.7875 28 12 28.7875 12 29.75V35H8.5V26.25C8.5 23.3625 10.8625 21 13.75 21H27.75C30.6375 21 33 23.3625 33 26.25V35Z" fill="white"/>
</svg>
