<svg width="42" height="42" viewBox="0 0 42 42" fill="none" xmlns="http://www.w3.org/2000/svg">
<path d="M34.405 24.5C33.25 27.86 30.485 30.695 26.705 32.1825L24.5 33.0575V35H17.5V33.0575L15.2775 32.1825C11.4975 30.695 8.7325 27.86 7.5775 24.5H34.405ZM38.5 3.5L7 6.9825V21H3.5C3.5 27.4575 7.8225 33.005 14 35.4375V38.5H28V35.4375C34.1775 33.005 38.5 27.4575 38.5 21H18.375V14H38.5V11.375H18.375V8.365L38.5 6.1425V3.5ZM14 11.375V8.855L15.75 8.6625V11.375H14ZM9.625 11.375V9.345L11.375 9.1525V11.375H9.625ZM14 21V14H15.75V21H14ZM9.625 21V14H11.375V21H9.625Z" fill="white"/>
</svg>
