<svg width="42" height="42" viewBox="0 0 42 42" fill="none" xmlns="http://www.w3.org/2000/svg">
<path d="M11.375 3.5C13.3 3.5 14.875 5.075 14.875 7C14.875 8.925 13.3 10.5 11.375 10.5C9.45 10.5 7.875 8.925 7.875 7C7.875 5.075 9.45 3.5 11.375 3.5ZM27.125 16.625C27.125 18.0775 28.2975 19.25 29.75 19.25C31.2025 19.25 32.375 18.0775 32.375 16.625C32.375 15.1725 31.2025 14 29.75 14C28.2975 14 27.125 15.1725 27.125 16.625ZM32.375 21H27.405C26.39 21.0175 25.41 21.56 24.8675 22.505L23.2575 24.815L17.01 14C16.3625 12.8975 15.2075 12.2675 14.0175 12.25H8.75C6.825 12.25 5.25 13.825 5.25 15.75V26.25H7.875V38.5H16.625V20.3175L21.0525 28H24.9025L26.25 26.075V38.5H33.25V29.75H35V23.625C35 22.19 33.8275 21 32.375 21Z" fill="white"/>
</svg>
