<svg width="32" height="28" viewBox="0 0 32 28" fill="none" xmlns="http://www.w3.org/2000/svg">
<path d="M31.75 17.5C31.75 16.5375 30.9625 15.75 30 15.75H26.5V19.25H30C30.9625 19.25 31.75 18.4625 31.75 17.5Z" fill="white"/>
<path d="M30 22.75H26.5V26.25H30C30.9625 26.25 31.75 25.4625 31.75 24.5C31.75 23.5375 30.9625 22.75 30 22.75Z" fill="white"/>
<path d="M16 17.5H12.5V24.5H16C16 26.425 17.575 28 19.5 28H24.75V14H19.5C17.575 14 16 15.575 16 17.5Z" fill="white"/>
<path d="M3.75 15.75C3.75 13.825 5.325 12.25 7.25 12.25H9.875C13.2525 12.25 16 9.5025 16 6.125C16 2.7475 13.2525 0 9.875 0H3.75C2.7875 0 2 0.7875 2 1.75C2 2.7125 2.7875 3.5 3.75 3.5H9.875C11.3275 3.5 12.5 4.6725 12.5 6.125C12.5 7.5775 11.3275 8.75 9.875 8.75H7.25C3.3825 8.75 0.25 11.8825 0.25 15.75C0.25 19.6175 3.3825 22.75 7.25 22.75H10.75V19.25H7.25C5.325 19.25 3.75 17.675 3.75 15.75Z" fill="white"/>
</svg>
