<svg xmlns="http://www.w3.org/2000/svg" x="0px" y="0px"
width="64" height="64"
viewBox="0 0 172 172"
style=" fill:#000000;"><g fill="none" fill-rule="nonzero" stroke="none" stroke-width="1" stroke-linecap="butt" stroke-linejoin="miter" stroke-miterlimit="10" stroke-dasharray="" stroke-dashoffset="0" font-family="none" font-weight="none" font-size="none" text-anchor="none" style="mix-blend-mode: normal"><path d="M0,172v-172h172v172z" fill="none"></path><g fill="#ffffff"><path d="M136.12187,83.58125c-1.74687,-3.49375 -5.10625,-5.64375 -9.00312,-5.50937h-27.54687c-0.5375,0 -0.94062,-0.40313 -1.075,-0.5375c-0.40313,-0.40312 -0.5375,-0.94062 -0.40313,-1.34375l10.2125,-50.79375c0.94063,-4.56875 -1.34375,-8.86875 -5.50937,-10.75c-4.16562,-1.88125 -8.86875,-0.67187 -11.69062,2.95625l-54.2875,73.1c-2.15,3.09063 -2.41875,6.9875 -0.67187,10.2125c1.6125,3.225 4.97187,5.24063 8.6,5.24063h26.875c0.67188,0 1.075,0.40313 1.20937,0.67188c0.13438,0.26875 0.40312,0.67188 0.26875,1.47812l-9.40625,38.1625c-1.075,4.3 0.94063,8.6 4.8375,10.75c1.47813,0.80625 3.09063,1.20937 4.56875,1.20937c2.6875,0 5.24063,-1.075 7.12188,-3.225l54.42188,-61.14062v0c2.55312,-2.82187 3.09062,-6.9875 1.47812,-10.48125zM128.59688,88.82188l-54.2875,60.87188c-0.80625,0.80625 -1.74687,0.5375 -2.01562,0.26875c-0.67187,-0.40313 -0.94062,-0.94063 -0.80625,-1.74688l9.27188,-38.02812c0.67188,-2.95625 0.13437,-5.9125 -1.74688,-8.33125c-1.74688,-2.41875 -4.56875,-3.7625 -7.525,-3.7625h-26.875c-0.80625,0 -1.20938,-0.5375 -1.34375,-0.94062c-0.13438,-0.40313 -0.40313,-1.075 0.13437,-1.74688l54.2875,-72.96562c0.40313,-0.5375 0.80625,-0.67187 1.20938,-0.67187c0.26875,0 0.5375,0.13438 0.67188,0.13438c0.40313,0.13438 1.20938,0.67188 0.94063,1.88125l-10.2125,50.65938c-0.5375,2.82188 0.13437,5.77812 2.01563,8.0625c1.88125,2.28437 4.56875,3.49375 7.39063,3.49375h27.54688h0.13437c0.94063,0 1.34375,0.5375 1.47812,0.94062c0.13438,0.40313 0.40313,1.20937 -0.26875,1.88125zM28.21875,93.92813c0,-2.28438 -1.74687,-4.03125 -4.03125,-4.03125h-18.8125c-2.28438,0 -4.03125,1.74687 -4.03125,4.03125c0,2.28437 1.74687,4.03125 4.03125,4.03125h18.8125c2.28438,0 4.03125,-1.88125 4.03125,-4.03125zM29.15938,119.8625l-13.84063,8.33125c-1.88125,1.20938 -2.55312,3.62813 -1.34375,5.50938c1.20938,1.88125 3.62813,2.55312 5.50937,1.34375l13.84063,-8.33125c1.20938,-0.80625 2.01563,-2.15 2.01563,-3.49375c0,-0.67187 -0.13437,-1.47812 -0.5375,-2.01562c-1.20938,-1.88125 -3.7625,-2.41875 -5.64375,-1.34375zM13.975,54.15313c-1.20937,1.88125 -0.5375,4.43437 1.34375,5.50938l13.84063,8.33125c1.88125,1.20937 4.43438,0.5375 5.50937,-1.34375c0.40313,-0.67187 0.5375,-1.34375 0.5375,-2.01562c0,-1.34375 -0.67187,-2.6875 -2.01562,-3.49375l-13.84063,-8.33125c-1.74688,-1.20937 -4.16563,-0.5375 -5.375,1.34375zM166.625,89.89688h-18.8125c-2.28438,0 -4.03125,1.74687 -4.03125,4.03125c0,2.28437 1.74687,4.03125 4.03125,4.03125h18.8125c2.28438,0 4.03125,-1.74688 4.03125,-4.03125c0,-2.28438 -1.74687,-4.03125 -4.03125,-4.03125zM156.68125,128.19375l-13.84063,-8.33125c-1.88125,-1.20937 -4.43437,-0.5375 -5.50937,1.34375c-0.40313,0.67188 -0.5375,1.34375 -0.5375,2.01563c0,1.34375 0.67188,2.6875 2.01563,3.49375l13.84063,8.33125c1.88125,1.20937 4.43437,0.5375 5.50937,-1.34375c0.94063,-1.88125 0.40313,-4.43437 -1.47812,-5.50938zM142.84062,67.99375l13.84063,-8.33125c1.88125,-1.20938 2.55312,-3.62813 1.34375,-5.50938c-1.20938,-1.88125 -3.62813,-2.55312 -5.50938,-1.34375l-13.84062,8.33125c-1.20938,0.80625 -2.01562,2.15 -2.01562,3.49375c0,0.67188 0.13437,1.47812 0.5375,2.01563c1.20937,1.88125 3.7625,2.41875 5.64375,1.34375z"></path></g></g></svg>