<svg width="30" height="36" viewBox="0 0 30 36" fill="none" xmlns="http://www.w3.org/2000/svg">
<path d="M27.74 5.62749L24.03 1.91749C22.665 0.552488 20.4425 0.552488 19.0775 1.91749L14.125 6.86999L17.835 10.58L21.545 6.86999L27.74 13.065C29.7875 11 29.7875 7.67499 27.74 5.62749Z" fill="white"/>
<path d="M3.60754 21.0975C4.64004 22.13 6.30254 22.13 7.31754 21.0975L11.64 16.775L7.93004 13.0475L3.60754 17.37C2.57504 18.4025 2.57504 20.065 3.60754 21.0975Z" fill="white"/>
<path d="M20.32 10.58L19.0775 11.8225L17.835 13.065L12.27 7.49997C11.2375 6.44997 9.57501 6.44997 8.56001 7.48247C7.52751 8.51497 7.52751 10.1775 8.56001 11.1925L14.125 16.7575L12.8825 18L1.75251 29.13C0.38751 30.495 0.38751 32.7175 1.75251 34.0825C3.11751 35.4475 5.34001 35.4475 6.70501 34.0825L22.7875 18C23.47 18.6825 24.5725 18.6825 25.255 18C25.9375 17.3175 25.9375 16.215 25.255 15.5325L20.32 10.58Z" fill="white"/>
</svg>
