<svg width="25" height="39" viewBox="0 0 25 39" fill="none" xmlns="http://www.w3.org/2000/svg">
<path d="M13.625 7.625C15.55 7.625 17.125 6.05 17.125 4.125C17.125 2.2 15.55 0.625 13.625 0.625C11.7 0.625 10.125 2.2 10.125 4.125C10.125 6.05 11.7 7.625 13.625 7.625ZM25 19.875V38.25H23.25V19.875C23.25 19.385 22.865 19 22.375 19C21.885 19 21.5 19.385 21.5 19.875V21.625H19.75V20.4175C17.195 19.7525 15.025 18.16 13.6075 16.0075C13.065 17.53 12.75 19.1225 12.75 20.75C12.75 21.1525 12.785 21.555 12.8025 21.9575L16.25 26.875V38.25H12.75V29.5L9.635 25.055L9.25 31.25L4 38.25L1.2 36.15L5.75 30.0775V20.75C5.75 18.7375 6.065 16.7425 6.625 14.8175L4 16.305V22.5H0.5V14.275L9.95 8.9025V8.92C10.9825 8.3775 12.26 8.3425 13.345 8.9725C13.975 9.34 14.4475 9.865 14.745 10.46L16.1275 13.3825C17.265 15.675 19.645 17.25 22.375 17.25C23.8275 17.25 25 18.4225 25 19.875Z" fill="white"/>
</svg>
