<svg width="42" height="42" viewBox="0 0 42 42" fill="none" xmlns="http://www.w3.org/2000/svg">
<path d="M15.155 22.8725C15.4175 22.8725 15.6625 22.855 15.9075 22.82C16.73 24.8325 18.7075 26.25 21 26.25C23.2925 26.25 25.27 24.8325 26.0925 22.82C26.3375 22.855 26.6 22.8725 26.845 22.8725C29.8725 22.8725 32.34 20.405 32.34 17.3775C32.34 16.135 31.9025 14.945 31.1675 14C31.92 13.055 32.34 11.865 32.34 10.6225C32.34 7.595 29.8725 5.1275 26.845 5.1275C26.5825 5.1275 26.3375 5.145 26.0925 5.18C25.27 3.1675 23.2925 1.75 21 1.75C18.7075 1.75 16.73 3.1675 15.9075 5.18C15.6625 5.145 15.4 5.1275 15.155 5.1275C12.1275 5.1275 9.66 7.595 9.66 10.6225C9.66 11.865 10.0975 13.055 10.8325 14C10.08 14.945 9.6425 16.135 9.6425 17.3775C9.6425 20.405 12.11 22.8725 15.155 22.8725ZM21 22.75C19.915 22.75 19.04 21.8925 19.005 20.825L19.215 18.9175C19.775 19.1275 20.37 19.25 21 19.25C21.63 19.25 22.2425 19.1275 22.8025 18.9175L22.995 20.825C22.96 21.8925 22.085 22.75 21 22.75ZM26.845 19.3725C26.425 19.3725 26.04 19.25 25.725 19.0225L24.3075 18.025C25.27 17.2375 25.9525 16.1175 26.1625 14.8225L27.7025 15.5575C28.4025 15.89 28.8575 16.59 28.8575 17.36C28.8575 18.48 27.9475 19.3725 26.845 19.3725ZM25.7075 8.9775C26.0575 8.75 26.4425 8.6275 26.845 8.6275C27.9475 8.6275 28.84 9.52 28.84 10.6225C28.84 11.3925 28.4025 12.075 27.685 12.425L26.145 13.16C25.935 11.865 25.2525 10.745 24.2725 9.9575L25.7075 8.9775ZM21 5.25C22.085 5.25 22.96 6.1075 22.995 7.175L22.8025 9.0825C22.2425 8.8725 21.63 8.75 21 8.75C20.37 8.75 19.775 8.8725 19.215 9.0825L19.005 7.175C19.04 6.1075 19.915 5.25 21 5.25ZM15.155 8.6275C15.575 8.6275 15.96 8.75 16.275 8.9775L17.6925 9.9575C16.73 10.745 16.0475 11.865 15.8375 13.16L14.2975 12.425C13.5975 12.075 13.1425 11.3925 13.1425 10.6225C13.1425 9.52 14.0525 8.6275 15.155 8.6275ZM14.2975 15.575L15.8375 14.84C16.0475 16.135 16.73 17.255 17.71 18.0425L16.2925 19.005C15.9425 19.2325 15.5575 19.355 15.155 19.355C14.0525 19.355 13.16 18.4625 13.16 17.36C13.1425 16.6075 13.5975 15.925 14.2975 15.575ZM21 38.5C29.6975 38.5 36.75 31.4475 36.75 22.75C28.0525 22.75 21 29.8025 21 38.5ZM25.27 34.23C26.5125 30.905 29.155 28.245 32.48 27.02C31.2375 30.345 28.595 32.9875 25.27 34.23ZM5.25 22.75C5.25 31.4475 12.3025 38.5 21 38.5C21 29.8025 13.9475 22.75 5.25 22.75ZM9.52 27.02C12.845 28.2625 15.505 30.905 16.73 34.23C13.405 32.9875 10.7625 30.345 9.52 27.02Z" fill="white"/>
</svg>
