<svg width="36" height="38" viewBox="0 0 36 38" fill="none" xmlns="http://www.w3.org/2000/svg">
<path d="M34.9225 30.7975L25.6475 21.5225H23.915L19.47 25.9675V27.7L28.745 36.975C29.4275 37.6575 30.53 37.6575 31.2125 36.975L34.9225 33.265C35.605 32.6 35.605 31.48 34.9225 30.7975ZM29.97 33.2825L22.55 25.8625L23.7925 24.62L31.2125 32.04L29.97 33.2825Z" fill="white"/>
<path d="M27.345 16.8325L29.8125 14.365L33.5225 18.075C35.57 16.0275 35.57 12.7025 33.5225 10.655L27.3275 4.46L24.86 6.9275V1.9925L23.635 0.75L17.44 6.945L18.6825 8.1875H23.635L21.1675 10.655L23.0225 12.51L17.965 17.5675L10.7375 10.34V7.855L5.4525 2.57L0.5 7.5225L5.8025 12.825H8.27L15.4975 20.0525L14.01 21.54H10.3L1.025 30.815C0.3425 31.4975 0.3425 32.6 1.025 33.2825L4.735 36.9925C5.4175 37.675 6.52 37.675 7.2025 36.9925L16.4775 27.7175V24.0075L25.49 14.995L27.345 16.8325ZM13.38 25.845L5.96 33.265L4.7175 32.0225L12.1375 24.6025L13.38 25.845Z" fill="white"/>
</svg>
