<svg width="32" height="32" viewBox="0 0 32 32" fill="none" xmlns="http://www.w3.org/2000/svg">
<path d="M26.1667 12.6667C29.3833 12.6667 32 10.05 32 6.83334C32 5.86667 31.7333 4.96667 31.3167 4.16667L26.8167 8.66667L24.3333 6.18334L28.8333 1.68334C28.0333 1.26667 27.1333 1.00001 26.1667 1.00001C22.95 1.00001 20.3333 3.61667 20.3333 6.83334C20.3333 7.51667 20.4667 8.16667 20.6833 8.76667L17.6 11.85L14.6333 8.88334L15.8167 7.70001L13.4667 5.35001L17 1.81667C15.05 -0.133328 11.8833 -0.133328 9.93333 1.81667L4.03333 7.71667L6.38333 10.0667H1.68333L0.5 11.25L6.4 17.15L7.58333 15.9667V11.25L9.93333 13.6L11.1167 12.4167L14.0833 15.3833L1.73333 27.7333L5.26667 31.2667L24.2333 12.3167C24.8333 12.5333 25.4833 12.6667 26.1667 12.6667Z" fill="white"/>
</svg>
